TITLE ""
FILE "P1Q_t_0449-0458.mp3" MP3
  TRACK 01 AUDIO
    TITLE "P1Q_t_0449-0458_01"
    INDEX 01 00:00:00
  TRACK 02 AUDIO
    TITLE "P1Q_t_0449-0458_02"
    INDEX 01 00:01:22
  TRACK 03 AUDIO
    TITLE "P1Q_t_0449-0458_03"
    INDEX 01 00:01:43
  TRACK 04 AUDIO
    TITLE "P1Q_t_0449-0458_04"
    INDEX 01 00:04:71
  TRACK 05 AUDIO
    TITLE "P1Q_t_0449-0458_05"
    INDEX 01 00:05:15
  TRACK 06 AUDIO
    TITLE "P1Q_t_0449-0458_06"
    INDEX 01 00:09:41
  TRACK 07 AUDIO
    TITLE "P1Q_t_0449-0458_07"
    INDEX 01 00:10:11
  TRACK 08 AUDIO
    TITLE "P1Q_t_0449-0458_08"
    INDEX 01 00:11:30
  TRACK 09 AUDIO
    TITLE "P1Q_t_0449-0458_09"
    INDEX 01 00:11:53
  TRACK 10 AUDIO
    TITLE "P1Q_t_0449-0458_10"
    INDEX 01 00:16:13
  TRACK 11 AUDIO
    TITLE "P1Q_t_0449-0458_11"
    INDEX 01 00:16:35
  TRACK 12 AUDIO
    TITLE "P1Q_t_0449-0458_12"
    INDEX 01 00:19:74
  TRACK 13 AUDIO
    TITLE "P1Q_t_0449-0458_13"
    INDEX 01 00:20:46
  TRACK 14 AUDIO
    TITLE "P1Q_t_0449-0458_14"
    INDEX 01 00:21:63
  TRACK 15 AUDIO
    TITLE "P1Q_t_0449-0458_15"
    INDEX 01 00:22:08
  TRACK 16 AUDIO
    TITLE "P1Q_t_0449-0458_16"
    INDEX 01 00:23:45
  TRACK 17 AUDIO
    TITLE "P1Q_t_0449-0458_17"
    INDEX 01 00:23:66
  TRACK 18 AUDIO
    TITLE "P1Q_t_0449-0458_18"
    INDEX 01 00:30:41
  TRACK 19 AUDIO
    TITLE "P1Q_t_0449-0458_19"
    INDEX 01 00:31:11
  TRACK 20 AUDIO
    TITLE "P1Q_t_0449-0458_20"
    INDEX 01 00:32:24
  TRACK 21 AUDIO
    TITLE "P1Q_t_0449-0458_21"
    INDEX 01 00:32:46
  TRACK 22 AUDIO
    TITLE "P1Q_t_0449-0458_22"
    INDEX 01 00:35:52
  TRACK 23 AUDIO
    TITLE "P1Q_t_0449-0458_23"
    INDEX 01 00:35:71
  TRACK 24 AUDIO
    TITLE "P1Q_t_0449-0458_24"
    INDEX 01 00:41:70
  TRACK 25 AUDIO
    TITLE "P1Q_t_0449-0458_25"
    INDEX 01 00:42:40
  TRACK 26 AUDIO
    TITLE "P1Q_t_0449-0458_26"
    INDEX 01 00:43:57
  TRACK 27 AUDIO
    TITLE "P1Q_t_0449-0458_27"
    INDEX 01 00:44:04
  TRACK 28 AUDIO
    TITLE "P1Q_t_0449-0458_28"
    INDEX 01 00:46:10
  TRACK 29 AUDIO
    TITLE "P1Q_t_0449-0458_29"
    INDEX 01 00:46:32
  TRACK 30 AUDIO
    TITLE "P1Q_t_0449-0458_30"
    INDEX 01 00:50:42
  TRACK 31 AUDIO
    TITLE "P1Q_t_0449-0458_31"
    INDEX 01 00:51:16
  TRACK 32 AUDIO
    TITLE "P1Q_t_0449-0458_32"
    INDEX 01 00:52:33
  TRACK 33 AUDIO
    TITLE "P1Q_t_0449-0458_33"
    INDEX 01 00:52:56
  TRACK 34 AUDIO
    TITLE "P1Q_t_0449-0458_34"
    INDEX 01 00:57:12
  TRACK 35 AUDIO
    TITLE "P1Q_t_0449-0458_35"
    INDEX 01 00:57:34
  TRACK 36 AUDIO
    TITLE "P1Q_t_0449-0458_36"
    INDEX 01 01:01:12
  TRACK 37 AUDIO
    TITLE "P1Q_t_0449-0458_37"
    INDEX 01 01:01:59
  TRACK 38 AUDIO
    TITLE "P1Q_t_0449-0458_38"
    INDEX 01 01:03:27
  TRACK 39 AUDIO
    TITLE "P1Q_t_0449-0458_39"
    INDEX 01 01:03:50
  TRACK 40 AUDIO
    TITLE "P1Q_t_0449-0458_40"
    INDEX 01 01:04:63
  TRACK 41 AUDIO
    TITLE "P1Q_t_0449-0458_41"
    INDEX 01 01:05:10
  TRACK 42 AUDIO
    TITLE "P1Q_t_0449-0458_42"
    INDEX 01 01:10:25
  TRACK 43 AUDIO
    TITLE "P1Q_t_0449-0458_43"
    INDEX 01 01:10:72
  TRACK 44 AUDIO
    TITLE "P1Q_t_0449-0458_44"
    INDEX 01 01:12:12
  TRACK 45 AUDIO
    TITLE "P1Q_t_0449-0458_45"
    INDEX 01 01:12:33
  TRACK 46 AUDIO
    TITLE "P1Q_t_0449-0458_46"
    INDEX 01 01:14:32
  TRACK 47 AUDIO
    TITLE "P1Q_t_0449-0458_47"
    INDEX 01 01:14:52
  TRACK 48 AUDIO
    TITLE "P1Q_t_0449-0458_48"
    INDEX 01 01:19:10
  TRACK 49 AUDIO
    TITLE "P1Q_t_0449-0458_49"
    INDEX 01 01:19:57
  TRACK 50 AUDIO
    TITLE "P1Q_t_0449-0458_50"
    INDEX 01 01:20:64
  TRACK 51 AUDIO
    TITLE "P1Q_t_0449-0458_51"
    INDEX 01 01:21:09
  TRACK 52 AUDIO
    TITLE "P1Q_t_0449-0458_52"
    INDEX 01 01:23:53
  TRACK 53 AUDIO
    TITLE "P1Q_t_0449-0458_53"
    INDEX 01 01:23:72
  TRACK 54 AUDIO
    TITLE "P1Q_t_0449-0458_54"
    INDEX 01 01:27:68
  TRACK 55 AUDIO
    TITLE "P1Q_t_0449-0458_55"
    INDEX 01 01:28:38
  TRACK 56 AUDIO
    TITLE "P1Q_t_0449-0458_56"
    INDEX 01 01:29:63
  TRACK 57 AUDIO
    TITLE "P1Q_t_0449-0458_57"
    INDEX 01 01:30:12
  TRACK 58 AUDIO
    TITLE "P1Q_t_0449-0458_58"
    INDEX 01 01:32:32
  TRACK 59 AUDIO
    TITLE "P1Q_t_0449-0458_59"
    INDEX 01 01:32:52
  TRACK 60 AUDIO
    TITLE "P1Q_t_0449-0458_60"
    INDEX 01 01:37:14
